<svg width="64" height="65" viewBox="0 0 64 65" fill="none" xmlns="http://www.w3.org/2000/svg">
<mask id="mask0_96_4731" style="mask-type:luminance" maskUnits="userSpaceOnUse" x="0" y="0" width="64" height="65">
<path d="M0 0.5H64V64.5H0V0.5Z" fill="white"/>
</mask>
<g mask="url(#mask0_96_4731)">
<path d="M47.481 42.2433C44.8291 42.3527 41.3186 42.7312 38.025 43.8197" stroke="white" stroke-width="1.5" stroke-miterlimit="10" stroke-linecap="round" stroke-linejoin="round"/>
<path d="M22.1789 10.8923V12.0655C22.1789 12.6867 22.572 13.2398 23.1586 13.4441L24.735 13.993C25.2859 14.1848 25.8614 13.7752 25.8605 13.1918L25.857 10.2096C25.8568 10.1617 25.8579 10.1141 25.8601 10.0668C25.9485 8.25534 28.225 7.50409 29.4343 8.85571C30.8879 10.4807 33.8735 12.9566 37.9741 11.9657C38.4401 11.8532 38.9228 12.0698 39.1368 12.4988L39.1373 12.4997C39.5629 13.3535 40.5568 13.758 41.4578 13.4442C42.0444 13.2398 42.4374 12.6867 42.4374 12.0656V6.48334C42.4374 5.41746 41.5825 4.54859 40.5169 4.53121C39.8924 4.52109 39.3889 4.01721 39.3791 3.39271C39.3621 2.30759 38.4776 1.43684 37.3924 1.43684H28.5784C25.4966 1.43684 22.9238 3.61509 22.3153 6.51584" stroke="white" stroke-width="1.5" stroke-miterlimit="10" stroke-linecap="round" stroke-linejoin="round"/>
<path d="M22.3183 12.686C21.8507 13.0735 21.553 13.6588 21.5535 14.3137L21.5548 16.2279C21.5557 17.3937 22.5012 18.338 23.667 18.3375L24.209 18.3373C24.2637 20.4935 25.1676 22.5653 26.7908 23.968C28.0977 25.0973 29.9321 26.08 32.35 26.097C34.7677 26.0594 36.594 25.061 37.8912 23.9205C39.5028 22.504 40.3893 20.4247 40.4261 18.268L40.9813 18.2658C41.7921 18.2623 42.4465 17.5943 42.4431 16.7737L42.4362 13.6087C42.4351 13.3248 42.3538 13.0608 42.2165 12.8358" stroke="white" stroke-width="1.5" stroke-miterlimit="10" stroke-linecap="round" stroke-linejoin="round"/>
<path d="M28.0038 24.8564V25.7963C28.0038 27.0302 27.3543 28.1345 26.3523 28.7537" stroke="white" stroke-width="1.5" stroke-miterlimit="10" stroke-linecap="round" stroke-linejoin="round"/>
<path d="M38.0607 28.9724C36.825 28.4249 35.993 27.1935 35.993 25.7958V25.2094" stroke="white" stroke-width="1.5" stroke-miterlimit="10" stroke-linecap="round" stroke-linejoin="round"/>
<path d="M45.5123 31.7767C43.9751 30.6654 42.1826 29.8691 40.2201 29.4915C40.0013 29.4492 39.4345 29.3359 38.7846 29.205C38.5306 29.1539 38.289 29.0745 38.0606 28.9722C36.7099 30.128 34.833 31.1224 32.3664 31.1607C29.836 31.143 27.9161 30.1145 26.5485 28.9326C26.4811 28.8745 26.417 28.8134 26.3521 28.7531C26.0093 28.9651 25.6261 29.1216 25.212 29.205C24.5621 29.3359 23.9954 29.4492 23.7764 29.4915C21.814 29.8691 20.0215 30.6654 18.4843 31.7767" stroke="white" stroke-width="1.5" stroke-miterlimit="10" stroke-linecap="round" stroke-linejoin="round"/>
<path d="M30.4332 38.4902C30.2527 38.3754 30.0689 38.2649 29.8831 38.1572V62.9844C29.8902 62.9884 29.8977 62.9923 29.9048 62.9964C31.2011 63.7499 32.7957 63.7498 34.0919 62.9964C34.0992 62.9923 34.1064 62.9883 34.1136 62.9842V38.1572C33.9278 38.2649 33.7439 38.3754 33.5634 38.4902C32.6058 39.0987 31.3908 39.0987 30.4332 38.4902Z" stroke="white" stroke-width="1.5" stroke-miterlimit="10" stroke-linecap="round" stroke-linejoin="round"/>
<path d="M34.1136 62.9841C39.7074 59.7443 47.5853 59.661 50.4744 59.755C51.0865 59.7749 51.5924 59.2831 51.5924 58.6706V52.8465" stroke="white" stroke-width="1.5" stroke-miterlimit="10" stroke-linecap="round" stroke-linejoin="round"/>
<path d="M51.5924 37.7187V36.4285C51.5924 35.6075 50.938 34.9368 50.1173 34.9177C46.9788 34.8448 39.4911 35.0466 34.1136 38.1631" stroke="white" stroke-width="1.5" stroke-miterlimit="10" stroke-linecap="round" stroke-linejoin="round"/>
<path d="M51.5923 45.4779V42.1119" stroke="white" stroke-width="1.5" stroke-miterlimit="10" stroke-linecap="round" stroke-linejoin="round"/>
<path d="M29.8831 38.1628C24.5054 35.0463 17.0177 34.8446 13.8793 34.9174C13.0585 34.9366 12.4042 35.6073 12.4042 36.4282V45.4197" stroke="white" stroke-width="1.5" stroke-miterlimit="10" stroke-linecap="round" stroke-linejoin="round"/>
<path d="M12.4043 52.8464V58.6706C12.4043 59.2831 12.9102 59.7748 13.5224 59.7549C16.4114 59.6609 24.2894 59.7443 29.8832 62.9841" stroke="white" stroke-width="1.5" stroke-miterlimit="10" stroke-linecap="round" stroke-linejoin="round"/>
<path d="M12.4039 45.4087C12.4039 46.062 12.9335 46.5916 13.5867 46.5916H14.3634C15.544 46.5916 16.501 47.5486 16.501 48.7292V51.5136C16.501 52.2511 15.9031 52.849 15.1655 52.849H12.4914C10.7922 52.849 9.41473 51.4716 9.41473 49.7726V47.2481C9.41473 46.256 9.93048 45.3351 10.7765 44.8166L12.4039 43.8195" stroke="white" stroke-width="1.5" stroke-miterlimit="10" stroke-linecap="round" stroke-linejoin="round"/>
<path d="M51.5961 45.4087C51.5961 46.062 51.0665 46.5916 50.4133 46.5916H49.6366C48.456 46.5916 47.499 47.5486 47.499 48.7292V51.5136C47.499 52.2511 48.0969 52.849 48.8345 52.849H51.5086C53.2078 52.849 54.5853 51.4716 54.5853 49.7726V47.2481C54.5853 46.256 54.0695 45.3351 53.2235 44.8166L51.5961 43.8195" stroke="white" stroke-width="1.5" stroke-miterlimit="10" stroke-linecap="round" stroke-linejoin="round"/>
<path d="M50.3671 34.9455V33.1256C50.3671 32.3561 49.7536 31.7273 48.9842 31.7094C45.873 31.6371 38.1993 31.8483 33.1302 35.2786C32.4458 35.7418 31.5508 35.7418 30.8665 35.2786C25.7973 31.8483 18.1237 31.6371 15.0125 31.7094C14.2431 31.7273 13.6296 32.3561 13.6296 33.1256V34.9455" stroke="white" stroke-width="1.5" stroke-miterlimit="10" stroke-linecap="round" stroke-linejoin="round"/>
</g>
</svg>
