<svg width="126" height="111" viewBox="0 0 126 111" fill="none" xmlns="http://www.w3.org/2000/svg">
<path d="M2.33105 40.2178V15.4912C2.33105 14.1436 3.4248 13.0498 4.77246 13.0498H37.541" stroke="white" stroke-width="3.66211" stroke-miterlimit="10" stroke-linecap="round" stroke-linejoin="round"/>
<path d="M88.6616 13.0498H121.228C122.575 13.0498 123.669 14.1436 123.669 15.4912V83.8506C123.669 85.2007 122.575 86.292 121.228 86.292H4.77246C3.4248 86.292 2.33105 85.2007 2.33105 83.8506V48.7627" stroke="white" stroke-width="3.66211" stroke-miterlimit="10" stroke-linecap="round" stroke-linejoin="round"/>
<path d="M14.0779 64.0927V74.2475" stroke="white" stroke-width="3.66211" stroke-miterlimit="10" stroke-linecap="round" stroke-linejoin="round"/>
<path d="M24.5948 74.2475C22.8316 74.2475 21.4022 72.8181 21.4022 71.0549V67.2853C21.4022 65.5222 22.8316 64.0927 24.5948 64.0927C26.358 64.0927 27.7874 65.5222 27.7874 67.2853V71.0549C27.7874 72.8181 26.358 74.2475 24.5948 74.2475Z" stroke="white" stroke-width="3.66211" stroke-miterlimit="10" stroke-linecap="round" stroke-linejoin="round"/>
<path d="M27.7875 56.7685V46.6137" stroke="white" stroke-width="3.66211" stroke-miterlimit="10" stroke-linecap="round" stroke-linejoin="round"/>
<path d="M17.2706 46.6137C19.0338 46.6137 20.4632 48.0432 20.4632 49.8063V53.5759C20.4632 55.339 19.0338 56.7685 17.2706 56.7685C15.5074 56.7685 14.0779 55.339 14.0779 53.5759V49.8063C14.0779 48.0432 15.5074 46.6137 17.2706 46.6137Z" stroke="white" stroke-width="3.66211" stroke-miterlimit="10" stroke-linecap="round" stroke-linejoin="round"/>
<path d="M111.922 56.7685V46.6137" stroke="white" stroke-width="3.66211" stroke-miterlimit="10" stroke-linecap="round" stroke-linejoin="round"/>
<path d="M101.405 46.6137C103.168 46.6137 104.598 48.0432 104.598 49.8063V53.5759C104.598 55.339 103.168 56.7685 101.405 56.7685C99.642 56.7685 98.2125 55.339 98.2125 53.5759V49.8063C98.2125 48.0432 99.642 46.6137 101.405 46.6137Z" stroke="white" stroke-width="3.66211" stroke-miterlimit="10" stroke-linecap="round" stroke-linejoin="round"/>
<path d="M111.922 39.3511V30.905" stroke="white" stroke-width="3.66211" stroke-miterlimit="10" stroke-linecap="round" stroke-linejoin="round"/>
<path d="M101.405 29.196C103.168 29.196 104.598 30.6255 104.598 32.3887V36.1582C104.598 37.9214 103.168 39.3508 101.405 39.3508C99.642 39.3508 98.2125 37.9214 98.2125 36.1582V32.3887C98.2125 30.6255 99.642 29.196 101.405 29.196Z" stroke="white" stroke-width="3.66211" stroke-miterlimit="10" stroke-linecap="round" stroke-linejoin="round"/>
<path d="M14.0779 30.905V39.3511" stroke="white" stroke-width="3.66211" stroke-miterlimit="10" stroke-linecap="round" stroke-linejoin="round"/>
<path d="M24.5948 39.351C22.8316 39.351 21.4022 37.9216 21.4022 36.1584V32.3889C21.4022 30.6257 22.8316 29.1962 24.5948 29.1962C26.358 29.1962 27.7874 30.6257 27.7874 32.3889V36.1584C27.7874 37.9216 26.358 39.351 24.5948 39.351Z" stroke="white" stroke-width="3.66211" stroke-miterlimit="10" stroke-linecap="round" stroke-linejoin="round"/>
<path d="M66.6623 74.2475C64.8991 74.2475 63.4697 72.8181 63.4697 71.0549V67.2853C63.4697 65.5222 64.8991 64.0927 66.6623 64.0927C68.4255 64.0927 69.8549 65.5222 69.8549 67.2853V71.0549C69.8549 72.8181 68.4255 74.2475 66.6623 74.2475Z" stroke="white" stroke-width="3.66211" stroke-miterlimit="10" stroke-linecap="round" stroke-linejoin="round"/>
<path d="M95.0198 74.2475C93.2566 74.2475 91.8272 72.8181 91.8272 71.0549V67.2853C91.8272 65.5222 93.2566 64.0927 95.0198 64.0927C96.783 64.0927 98.2124 65.5222 98.2124 67.2853V71.0549C98.2122 72.8181 96.783 74.2475 95.0198 74.2475Z" stroke="white" stroke-width="3.66211" stroke-miterlimit="10" stroke-linecap="round" stroke-linejoin="round"/>
<path d="M108.729 74.2475C106.966 74.2475 105.537 72.8181 105.537 71.0549V67.2853C105.537 65.5222 106.966 64.0927 108.729 64.0927C110.493 64.0927 111.922 65.5222 111.922 67.2853V71.0549C111.922 72.8181 110.493 74.2475 108.729 74.2475Z" stroke="white" stroke-width="3.66211" stroke-miterlimit="10" stroke-linecap="round" stroke-linejoin="round"/>
<path d="M35.1117 74.2475V64.0927" stroke="white" stroke-width="3.66211" stroke-miterlimit="10" stroke-linecap="round" stroke-linejoin="round"/>
<path d="M56.1455 74.2475V64.0927" stroke="white" stroke-width="3.66211" stroke-miterlimit="10" stroke-linecap="round" stroke-linejoin="round"/>
<path d="M77.1787 74.2475V64.0927" stroke="white" stroke-width="3.66211" stroke-miterlimit="10" stroke-linecap="round" stroke-linejoin="round"/>
<path d="M84.503 74.2475V64.0927" stroke="white" stroke-width="3.66211" stroke-miterlimit="10" stroke-linecap="round" stroke-linejoin="round"/>
<path d="M45.6286 64.0927C43.8654 64.0927 42.4359 65.5222 42.4359 67.2853V71.0549C42.4359 72.8181 43.8654 74.2475 45.6286 74.2475C47.3918 74.2475 48.8212 72.8181 48.8212 71.0549V67.2853C48.8212 65.5222 47.3918 64.0927 45.6286 64.0927Z" stroke="white" stroke-width="3.66211" stroke-miterlimit="10" stroke-linecap="round" stroke-linejoin="round"/>
<path d="M38.7214 99.7116L45.7141 86.6584" stroke="white" stroke-width="3.66211" stroke-miterlimit="10" stroke-linecap="round" stroke-linejoin="round"/>
<path d="M79.9797 99.8478C70.7481 90.1462 55.2708 90.1415 46.0332 99.8344" stroke="white" stroke-width="3.66211" stroke-miterlimit="10" stroke-linecap="round" stroke-linejoin="round"/>
<path d="M80.2858 86.6584L87.2983 99.7485" stroke="white" stroke-width="3.66211" stroke-miterlimit="10" stroke-linecap="round" stroke-linejoin="round"/>
<path d="M80.1191 108.997H91.3203C91.8599 108.997 92.2969 108.56 92.2969 108.02V100.94C92.2969 100.401 91.8599 99.9638 91.3203 99.9638H34.6797C34.1401 99.9638 33.7031 100.401 33.7031 100.94V108.02C33.7031 108.56 34.1401 108.997 34.6797 108.997H71.5742" stroke="white" stroke-width="3.66211" stroke-miterlimit="10" stroke-linecap="round" stroke-linejoin="round"/>
<path d="M34.5359 33.3183L26.1203 29.5854L26.1154 29.5829L25.6394 29.373L17.4118 25.7231C15.8811 25.0444 15.8811 22.7787 17.4118 22.1L61.0154 2.75922C62.2849 2.19525 63.7156 2.19525 64.9851 2.75922L71.2278 5.52777" stroke="white" stroke-width="3.66211" stroke-miterlimit="10" stroke-linecap="round" stroke-linejoin="round"/>
<path d="M79.0427 8.99457L108.589 22.1C110.119 22.7787 110.119 25.0444 108.589 25.7231L100.364 29.373L99.885 29.5829L99.8777 29.5878L91.5598 33.2768" stroke="white" stroke-width="3.66211" stroke-miterlimit="10" stroke-linecap="round" stroke-linejoin="round"/>
<path d="M62.9999 21.2407C57.2504 21.2407 51.9037 21.8193 47.4457 22.8178C39.8163 24.5195 34.7846 27.4418 34.7846 30.7597V54.8735C34.7846 55.9208 35.6342 56.768 36.6791 56.768H89.3207C90.3657 56.768 91.2153 55.9208 91.2153 54.8735V30.7597C91.2153 25.5009 78.5834 21.2407 62.9999 21.2407Z" stroke="white" stroke-width="3.66211" stroke-miterlimit="10" stroke-linecap="round" stroke-linejoin="round"/>
<path d="M90.8126 47.5102H55.9152" stroke="white" stroke-width="3.66211" stroke-miterlimit="10" stroke-linecap="round" stroke-linejoin="round"/>
<path d="M47.3701 47.5102H35.1875" stroke="white" stroke-width="3.66211" stroke-miterlimit="10" stroke-linecap="round" stroke-linejoin="round"/>
<path d="M47.447 9.12762V30.8188" stroke="white" stroke-width="3.66211" stroke-miterlimit="10" stroke-linecap="round" stroke-linejoin="round"/>
<path d="M50.4229 40.9379H44.555C43.8809 40.9379 43.3343 40.3913 43.3343 39.7172V35.4714C43.3343 33.1767 45.1944 31.3166 47.4891 31.3166C49.7838 31.3166 51.6439 33.1767 51.6439 35.4714V39.7172C51.6436 40.3913 51.097 40.9379 50.4229 40.9379Z" stroke="white" stroke-width="3.66211" stroke-miterlimit="10" stroke-linecap="round" stroke-linejoin="round"/>
</svg>
