<svg width="32" height="36" viewBox="0 0 32 36" fill="none" xmlns="http://www.w3.org/2000/svg">
<path d="M6 23.9501H7.66667M6 29.0501H7.66667M24.3333 29.0501H26M24.3333 23.9501H26M12.6667 35V28.2001C12.6667 26.3223 14.1591 24.8001 16 24.8001C17.8409 24.8001 19.3333 26.3223 19.3333 28.2001V35M16 6.09995H24.0667C24.16 6.09995 24.2067 6.09995 24.2423 6.08142C24.2737 6.06512 24.2992 6.03912 24.3152 6.00713C24.3333 5.97077 24.3333 5.92316 24.3333 5.82795V1.272C24.3333 1.17679 24.3333 1.12919 24.3152 1.09282C24.2992 1.06083 24.2737 1.03483 24.2423 1.01853C24.2067 1 24.16 1 24.0667 1H16.2667C16.1733 1 16.1267 1 16.091 1.01853C16.0596 1.03483 16.0341 1.06083 16.0182 1.09282C16 1.12919 16 1.17679 16 1.272V6.09995ZM16 6.09995V10.6745M16.05 18.4248H16.0625M16 10.6745C16.3245 10.6745 16.6491 10.7228 16.9632 10.8195C17.6762 11.039 18.3068 11.6178 19.5678 12.7755L24.3333 17.1502L26.9602 17.82C28.4046 18.1883 29.1269 18.3725 29.6646 18.7832C30.1391 19.1456 30.5102 19.6304 30.7398 20.1878C31 20.8196 31 21.5789 31 23.0975V29.5601C31 31.4642 31 32.4163 30.6367 33.1436C30.3171 33.7833 29.8072 34.3035 29.18 34.6294C28.4669 35 27.5335 35 25.6667 35H6.33333C4.46649 35 3.53307 35 2.82003 34.6294C2.19282 34.3035 1.68289 33.7833 1.36331 33.1436C1 32.4163 1 31.4642 1 29.5601V23.0975C1 21.5789 1 20.8196 1.26021 20.1878C1.4898 19.6304 1.86095 19.1456 2.33541 18.7832C2.87315 18.3725 3.59537 18.1883 5.03981 17.82L7.66667 17.1502L12.4322 12.7755C13.6932 11.6178 14.3238 11.039 15.0368 10.8195C15.3509 10.7228 15.6755 10.6745 16 10.6745ZM16.05 19.6998C15.3596 19.6998 14.8 19.129 14.8 18.4248C14.8 17.7207 15.3596 17.1498 16.05 17.1498C16.7404 17.1498 17.3 17.7207 17.3 18.4248C17.3 19.129 16.7404 19.6998 16.05 19.6998Z" stroke="white" stroke-width="2" stroke-linecap="round" stroke-linejoin="round"/>
<path d="M12.6667 35V28.2001C12.6667 26.3223 14.1591 24.8001 16 24.8001C17.8409 24.8001 19.3333 26.3223 19.3333 28.2001V35M16 6.09995H24.0667C24.16 6.09995 24.2067 6.09995 24.2423 6.08142C24.2737 6.06512 24.2992 6.03912 24.3152 6.00713C24.3333 5.97077 24.3333 5.92316 24.3333 5.82795V1.272C24.3333 1.17679 24.3333 1.12919 24.3152 1.09282C24.2992 1.06083 24.2737 1.03483 24.2423 1.01853C24.2067 1 24.16 1 24.0667 1H16.2667C16.1733 1 16.1267 1 16.091 1.01853C16.0596 1.03483 16.0341 1.06083 16.0182 1.09282C16 1.12919 16 1.17679 16 1.272V6.09995ZM16 6.09995V10.6745M16 10.6745C16.3245 10.6745 16.6491 10.7228 16.9632 10.8195C17.6762 11.039 18.3068 11.6178 19.5678 12.7755L24.3333 17.1502L26.9602 17.82C28.4046 18.1883 29.1269 18.3725 29.6646 18.7832C30.1391 19.1456 30.5102 19.6304 30.7398 20.1878C31 20.8196 31 21.5789 31 23.0975V29.5601C31 31.4642 31 32.4163 30.6367 33.1436C30.3171 33.7833 29.8072 34.3035 29.18 34.6294C28.4669 35 27.5335 35 25.6667 35H6.33333C4.46649 35 3.53307 35 2.82003 34.6294C2.19282 34.3035 1.68289 33.7833 1.36331 33.1436C1 32.4163 1 31.4642 1 29.5601V23.0975C1 21.5789 1 20.8196 1.26021 20.1878C1.4898 19.6304 1.86095 19.1456 2.33541 18.7832C2.87315 18.3725 3.59537 18.1883 5.03981 17.82L7.66667 17.1502L12.4322 12.7755C13.6932 11.6178 14.3238 11.039 15.0368 10.8195C15.3509 10.7228 15.6755 10.6745 16 10.6745Z" stroke="#F96756" stroke-width="2" stroke-linecap="round" stroke-linejoin="round"/>
</svg>
