<svg width="100" height="75" viewBox="0 0 100 75" fill="none" xmlns="http://www.w3.org/2000/svg">
<mask id="mask0_96_5015" style="mask-type:luminance" maskUnits="userSpaceOnUse" x="18" y="5" width="64" height="65">
<path d="M18 5.5H82V69.5H18V5.5Z" fill="white"/>
</mask>
<g mask="url(#mask0_96_5015)">
<path d="M67.5 27.375V29.875C67.5 33.3268 64.7017 36.125 61.25 36.125H38.75C35.2982 36.125 32.5 33.3268 32.5 29.875V27.375C32.5 25.3039 30.8211 23.625 28.75 23.625C26.6789 23.625 25 25.3039 25 27.375V29.875C25 37.4689 31.1561 43.625 38.75 43.625V60.125H61.25V43.625C68.8439 43.625 75 37.4689 75 29.875V27.375C75 25.3039 73.3211 23.625 71.25 23.625C69.1789 23.625 67.5 25.3039 67.5 27.375Z" stroke="white" stroke-width="1.5" stroke-miterlimit="10" stroke-linecap="round" stroke-linejoin="round"/>
<path d="M58.75 27.375C58.75 32.2075 54.8325 36.125 50 36.125C45.1675 36.125 41.25 32.2075 41.25 27.375C41.25 22.5425 45.1675 18.625 50 18.625C54.8325 18.625 58.75 22.5425 58.75 27.375Z" stroke="white" stroke-width="1.5" stroke-miterlimit="10" stroke-linecap="round" stroke-linejoin="round"/>
<path d="M50 11.125V7.375" stroke="white" stroke-width="1.5" stroke-miterlimit="10" stroke-linecap="round" stroke-linejoin="round"/>
<path d="M41.875 13.3021L40 10.0545" stroke="white" stroke-width="1.5" stroke-miterlimit="10" stroke-linecap="round" stroke-linejoin="round"/>
<path d="M35.9271 19.25L32.6795 17.375" stroke="white" stroke-width="1.5" stroke-miterlimit="10" stroke-linecap="round" stroke-linejoin="round"/>
<path d="M64.0729 19.25L67.3205 17.375" stroke="white" stroke-width="1.5" stroke-miterlimit="10" stroke-linecap="round" stroke-linejoin="round"/>
<path d="M58.125 13.3021L60 10.0545" stroke="white" stroke-width="1.5" stroke-miterlimit="10" stroke-linecap="round" stroke-linejoin="round"/>
<path d="M80.125 60.125H19.875V67.625H80.125V60.125Z" stroke="white" stroke-width="1.5" stroke-miterlimit="10" stroke-linecap="round" stroke-linejoin="round"/>
</g>
</svg>
