<svg width="166" height="126" viewBox="0 0 166 126" fill="none" xmlns="http://www.w3.org/2000/svg">
<g clip-path="url(#clip0_75_427)">
<path d="M42.3506 106.873H23.7959C22.9868 106.873 22.3311 106.218 22.3311 105.409V77.0883C22.3311 76.2792 22.9868 75.6235 23.7959 75.6235H42.3506C43.1597 75.6235 43.8154 76.2792 43.8154 77.0883V105.409C43.8154 106.218 43.1597 106.873 42.3506 106.873Z" stroke="white" stroke-width="3.66211" stroke-miterlimit="10" stroke-linecap="round" stroke-linejoin="round"/>
<path d="M29.3611 84.9428H36.7854" stroke="white" stroke-width="3.66211" stroke-miterlimit="10" stroke-linecap="round" stroke-linejoin="round"/>
<path d="M29.361 91.2057H36.7854" stroke="white" stroke-width="3.66211" stroke-miterlimit="10" stroke-linecap="round" stroke-linejoin="round"/>
<path d="M29.361 97.5541H36.7854" stroke="white" stroke-width="3.66211" stroke-miterlimit="10" stroke-linecap="round" stroke-linejoin="round"/>
<path d="M64.248 123.336H50.8515C50.0268 123.336 49.5595 122.391 50.0583 121.732C52.5507 118.43 59.5434 110.968 73.2304 108.433" stroke="white" stroke-width="3.66211" stroke-miterlimit="10" stroke-linecap="round" stroke-linejoin="round"/>
<path d="M92.6206 108.405C106.406 110.914 113.44 118.418 115.942 121.732C116.44 122.391 115.973 123.336 115.148 123.336H72.7986" stroke="white" stroke-width="3.66211" stroke-miterlimit="10" stroke-linecap="round" stroke-linejoin="round"/>
<path d="M91.579 109.061C91.579 113.807 87.7379 117.652 82.9998 117.652C78.2618 117.652 74.4207 113.807 74.4207 109.061" stroke="white" stroke-width="3.66211" stroke-miterlimit="10" stroke-linecap="round" stroke-linejoin="round"/>
<path d="M63.2211 93.0112C62.2861 93.7878 61.1803 94.2365 59.9955 94.2365C56.6352 94.2365 54.683 90.0895 54.683 85.6352C54.683 81.1808 56.6352 78.1057 59.9955 78.1057C60.6127 78.1057 61.2084 78.2275 61.7697 78.454" stroke="white" stroke-width="3.66211" stroke-miterlimit="10" stroke-linecap="round" stroke-linejoin="round"/>
<path d="M102.797 93.0261C103.728 93.7934 104.827 94.2368 106.005 94.2368C109.365 94.2368 111.317 90.0898 111.317 85.6354C111.317 81.1811 109.365 78.1059 106.005 78.1059C105.422 78.1059 104.858 78.2145 104.324 78.4174" stroke="white" stroke-width="3.66211" stroke-miterlimit="10" stroke-linecap="round" stroke-linejoin="round"/>
<path d="M102.639 82.1686V90.694C102.639 101.558 93.8302 110.367 82.9635 110.367C77.5509 110.367 72.651 108.175 69.1037 104.627C65.5563 101.08 63.3615 96.1799 63.3615 90.7673V82.1638" stroke="white" stroke-width="3.66211" stroke-miterlimit="10" stroke-linecap="round" stroke-linejoin="round"/>
<path d="M81.7783 94.809C82.7393 95.06 83.2607 95.06 84.2214 94.809" stroke="white" stroke-width="3.66211" stroke-miterlimit="10" stroke-linecap="round" stroke-linejoin="round"/>
<path d="M78.0539 80.5607C75.987 80.0212 74.8654 80.0212 72.7986 80.5607" stroke="white" stroke-width="3.66211" stroke-miterlimit="10" stroke-linecap="round" stroke-linejoin="round"/>
<path d="M87.9462 80.5607C90.0131 80.0212 91.1347 80.0212 93.2016 80.5607" stroke="white" stroke-width="3.66211" stroke-miterlimit="10" stroke-linecap="round" stroke-linejoin="round"/>
<path d="M78.2632 87.5851C76.284 88.102 75.2098 88.102 73.2305 87.5851" stroke="white" stroke-width="3.66211" stroke-miterlimit="10" stroke-linecap="round" stroke-linejoin="round"/>
<path d="M87.7362 87.5853C89.7155 88.1021 90.7897 88.1021 92.769 87.5853" stroke="white" stroke-width="3.66211" stroke-miterlimit="10" stroke-linecap="round" stroke-linejoin="round"/>
<path d="M86.8377 100.468C84.4781 101.781 81.522 101.781 79.1624 100.468" stroke="white" stroke-width="3.66211" stroke-miterlimit="10" stroke-linecap="round" stroke-linejoin="round"/>
<path d="M90.4135 53.216C114.59 57.309 102.639 82.1679 102.639 82.1679C102.639 82.1679 100.884 82.8356 99.2975 80.415C97.7094 77.9921 99.214 67.5519 92.9718 69.8891C86.7277 72.2285 82.9999 71.8945 82.9999 71.8945C82.9999 71.8945 79.2721 72.2285 73.0299 69.8891C66.7878 67.5519 68.2902 77.9921 66.7043 80.415C65.1161 82.8356 63.3632 82.1679 63.3632 82.1679C63.3632 82.1679 51.4106 57.3098 75.5851 53.216" stroke="white" stroke-width="3.66211" stroke-miterlimit="10" stroke-linecap="round" stroke-linejoin="round"/>
<path d="M122.551 23.822V42.1393C122.551 48.1877 117.651 53.091 111.606 53.091H90.8673C89.277 53.091 87.8073 53.9391 87.0104 55.3163L84.4396 59.7604C83.7987 60.8681 82.2006 60.8683 81.5595 59.7607L78.987 55.3154C78.1901 53.9387 76.7206 53.0908 75.1305 53.0908H54.3942C53.9135 53.0908 53.4398 53.0598 52.9755 52.9997" stroke="white" stroke-width="3.66211" stroke-miterlimit="10" stroke-linecap="round" stroke-linejoin="round"/>
<path d="M43.4492 34.1328V12.9494C43.4492 6.90106 48.3494 1.99774 54.3943 1.99774H111.606C117.651 1.99774 122.551 6.90106 122.551 12.9494V14.9194" stroke="white" stroke-width="3.66211" stroke-miterlimit="10" stroke-linecap="round" stroke-linejoin="round"/>
<path d="M94.6708 27.4772C94.7289 30.7199 93.4642 33.6682 91.3802 35.8168C90.6761 36.5429 90.0887 37.3752 89.6151 38.269C88.5287 40.319 87.65 41.2849 87.65 41.2849H78.35C78.35 41.2849 77.4845 40.3332 76.4093 38.3149C75.922 37.4001 75.3234 36.5451 74.6031 35.7998C72.5751 33.6999 71.3275 30.841 71.3275 27.6916C71.3275 21.0944 76.8009 15.7753 83.4542 16.0275C89.6107 16.2609 94.5604 21.3173 94.6708 27.4772Z" stroke="white" stroke-width="3.66211" stroke-miterlimit="10" stroke-linecap="round" stroke-linejoin="round"/>
<path d="M82.9998 7.24213V10.2165" stroke="white" stroke-width="3.66211" stroke-miterlimit="10" stroke-linecap="round" stroke-linejoin="round"/>
<path d="M72.8546 9.96039L74.3419 12.5363" stroke="white" stroke-width="3.66211" stroke-miterlimit="10" stroke-linecap="round" stroke-linejoin="round"/>
<path d="M65.4284 17.3871L68.0043 18.8742" stroke="white" stroke-width="3.66211" stroke-miterlimit="10" stroke-linecap="round" stroke-linejoin="round"/>
<path d="M97.9956 36.1896L100.571 37.6769" stroke="white" stroke-width="3.66211" stroke-miterlimit="10" stroke-linecap="round" stroke-linejoin="round"/>
<path d="M62.7099 27.5319H65.6843" stroke="white" stroke-width="3.66211" stroke-miterlimit="10" stroke-linecap="round" stroke-linejoin="round"/>
<path d="M100.315 27.5319H103.289" stroke="white" stroke-width="3.66211" stroke-miterlimit="10" stroke-linecap="round" stroke-linejoin="round"/>
<path d="M65.4285 37.6769L68.0045 36.1896" stroke="white" stroke-width="3.66211" stroke-miterlimit="10" stroke-linecap="round" stroke-linejoin="round"/>
<path d="M97.9956 18.8742L100.571 17.3871" stroke="white" stroke-width="3.66211" stroke-miterlimit="10" stroke-linecap="round" stroke-linejoin="round"/>
<path d="M91.6573 12.5363L93.1446 9.96039" stroke="white" stroke-width="3.66211" stroke-miterlimit="10" stroke-linecap="round" stroke-linejoin="round"/>
<path d="M78.3497 41.2849H87.6497V46.0046C87.6497 47.3183 86.5845 48.3835 85.2708 48.3835H80.7283C79.4146 48.3835 78.3494 47.3183 78.3494 46.0046V41.2849H78.3497Z" stroke="white" stroke-width="3.66211" stroke-miterlimit="10" stroke-linecap="round" stroke-linejoin="round"/>
<path d="M46.6744 36.8386L47.9247 39.3664C48.4486 40.4257 49.4611 41.1599 50.6325 41.3298L53.4279 41.7351C56.3778 42.1628 57.5555 45.7807 55.421 47.8571L53.3983 49.8249C52.5507 50.6494 52.1639 51.8376 52.3639 53.0019L52.8414 55.7805C53.3453 58.7126 50.2616 60.9484 47.6232 59.5642L45.1229 58.2524C44.0753 57.7026 42.8236 57.7026 41.7758 58.2524L39.2755 59.5642C36.6371 60.9484 33.5534 58.7126 34.0573 55.7805L34.5348 53.0019C34.735 51.8376 34.348 50.6496 33.5004 49.8249L31.4777 47.8571C29.3431 45.7807 30.5211 42.1628 33.4708 41.7351L36.2662 41.3298C37.4376 41.1599 38.4503 40.4257 38.974 39.3664L40.2243 36.8386C41.5436 34.1711 45.3551 34.1711 46.6744 36.8386Z" stroke="white" stroke-width="3.66211" stroke-miterlimit="10" stroke-linecap="round" stroke-linejoin="round"/>
<path d="M133.833 56.5024L135.083 59.0302C135.607 60.0895 136.619 60.8237 137.791 60.9936L140.586 61.3989C143.536 61.8266 144.714 65.4445 142.579 67.5209L140.557 69.4887C139.709 70.3132 139.322 71.5014 139.522 72.6657L140 75.4443C140.504 78.3764 137.42 80.6122 134.781 79.228L132.281 77.9162C131.234 77.3664 129.982 77.3664 128.934 77.9162L126.434 79.228C123.795 80.6122 120.712 78.3764 121.215 75.4443L121.693 72.6657C121.893 71.5014 121.506 70.3134 120.659 69.4887L118.636 67.5209C116.501 65.4445 117.679 61.8266 120.629 61.3989L123.424 60.9936C124.596 60.8237 125.609 60.0895 126.132 59.0302L127.382 56.5024C128.702 53.8347 132.513 53.8347 133.833 56.5024Z" stroke="white" stroke-width="3.66211" stroke-miterlimit="10" stroke-linecap="round" stroke-linejoin="round"/>
</g>
<defs>
<clipPath id="clip0_75_427">
<rect width="125" height="125" fill="white" transform="translate(20.5 0.166687)"/>
</clipPath>
</defs>
</svg>
