<svg width="166" height="130" viewBox="0 0 166 130" fill="none" xmlns="http://www.w3.org/2000/svg">
<path d="M135.273 105.613C135.948 98.2153 135.877 91.1011 135.025 84.2854C134.252 78.1126 130.213 72.8646 124.532 70.4496" stroke="white" stroke-width="3.77265" stroke-miterlimit="10" stroke-linecap="round" stroke-linejoin="round"/>
<path d="M110.86 92.0528L103.743 79.8777C102.673 78.0465 100.321 77.4298 98.4893 78.5002C96.8077 79.4831 96.1284 81.5691 96.9081 83.3539L102.943 97.1648C104.008 99.6017 105.77 101.669 108.006 103.108L112.149 105.772C113.516 106.651 114.655 107.84 115.475 109.243L118.936 115.163" stroke="white" stroke-width="3.77265" stroke-miterlimit="10" stroke-linecap="round" stroke-linejoin="round"/>
<path d="M134.566 121.235L124.972 126.843C123.843 127.503 122.393 127.122 121.733 125.993L117.362 118.826C116.702 117.697 117.083 116.247 118.212 115.587L137.566 104.273C138.695 103.613 140.146 103.993 140.806 105.122L145.176 112.29C145.836 113.419 145.456 114.869 144.327 115.529L140.862 117.554" stroke="white" stroke-width="3.77265" stroke-miterlimit="10" stroke-linecap="round" stroke-linejoin="round"/>
<path d="M56.1387 34.3149C56.1387 36.2425 57.7014 37.8049 59.6287 37.8049H65.6768C66.7225 37.8049 67.5701 38.6525 67.5701 39.6983V44.1927C67.5701 47.561 70.177 50.3203 73.4834 50.5632C77.2517 50.8401 80.3461 47.7918 80.3461 44.0134V39.6983C80.3461 38.6525 81.1937 37.8049 82.2394 37.8049H88.2875C90.2151 37.8049 91.7775 36.2423 91.7775 34.3149V5.65664C91.7775 3.72907 90.2148 2.16669 88.2875 2.16669H59.6287C57.7011 2.16669 56.1387 3.72932 56.1387 5.65664" stroke="white" stroke-width="3.77265" stroke-miterlimit="10" stroke-linecap="round" stroke-linejoin="round"/>
<path d="M52.6485 37.8155C54.5761 37.8155 56.1385 36.2528 56.1385 34.3255V28.2774C56.1385 27.2317 56.9861 26.3841 58.0318 26.3841H62.5263C65.8945 26.3841 68.6541 23.7772 68.8968 20.4708C69.1737 16.7025 66.1254 13.6081 62.347 13.6081H58.0318C56.9861 13.6081 56.1385 12.7605 56.1385 11.7148V5.66695C56.1385 3.73938 54.5759 2.177 52.6485 2.177H37.3311" stroke="white" stroke-width="3.77265" stroke-miterlimit="10" stroke-linecap="round" stroke-linejoin="round"/>
<path d="M30.0371 2.17645H23.9898C22.0625 2.17645 20.4999 3.73908 20.4999 5.66666V34.3252C20.4999 36.2528 22.0625 37.8152 23.9898 37.8152" stroke="white" stroke-width="3.77265" stroke-miterlimit="10" stroke-linecap="round" stroke-linejoin="round"/>
<path d="M106.209 84.096L122.196 73.3649C123.796 72.2907 124.222 70.1224 123.148 68.522L118.992 62.3309" stroke="white" stroke-width="3.77265" stroke-miterlimit="10" stroke-linecap="round" stroke-linejoin="round"/>
<path d="M114.927 56.2745L107.176 44.7272C106.101 43.1268 103.933 42.7003 102.333 43.7745L96.2055 47.8877C95.3194 48.4825 95.0833 49.6832 95.6781 50.5695L97.8904 53.8653C99.7141 56.5821 98.99 60.263 96.2732 62.0867C93.5563 63.9101 89.8757 63.1863 88.052 60.4695L85.8398 57.1737C85.2449 56.2876 84.0442 56.0514 83.1582 56.6463L78.5382 59.7474C76.9378 60.8216 76.5113 62.9901 77.5857 64.5905L80.9564 69.6118C81.5392 70.4801 81.3078 71.6564 80.4396 72.2391L76.7079 74.7442C73.9112 76.6214 73.0731 80.3239 74.7142 83.2044C76.5847 86.4874 80.84 87.3576 83.9773 85.2517L87.5601 82.8468C88.4283 82.2641 89.6046 82.4954 90.1874 83.3637L93.5581 88.3853C94.6323 89.9857 96.8006 90.4122 98.4009 89.3378L99.2684 88.7555" stroke="white" stroke-width="3.77265" stroke-miterlimit="10" stroke-linecap="round" stroke-linejoin="round"/>
<path d="M44.3121 54.7162C44.3121 51.4441 46.9648 48.7916 50.2367 48.7916H54.206C55.2734 48.7916 56.1386 47.9264 56.1386 46.859V41.2949C56.1386 39.3673 54.576 37.8049 52.6487 37.8049H46.6006C45.5548 37.8049 44.7072 36.9573 44.7072 35.9115V31.4171C44.7072 28.0488 42.1003 25.2893 38.794 25.0466C35.0256 24.7699 31.9315 27.818 31.9315 31.5964V35.9115C31.9315 36.9573 31.084 37.8049 30.0382 37.8049H23.9901C22.0625 37.8049 20.5002 39.3676 20.5002 41.2949V69.9534C20.5002 71.881 22.0628 73.4434 23.9901 73.4434H52.6487C54.5762 73.4434 56.1386 71.8807 56.1386 69.9534V62.5736C56.1386 61.5062 55.2734 60.641 54.206 60.641H50.2367C46.9645 60.6408 44.3121 57.9883 44.3121 54.7162Z" stroke="white" stroke-width="3.77265" stroke-miterlimit="10" stroke-linecap="round" stroke-linejoin="round"/>
</svg>
